<?xml version="1.0" encoding="utf-8" standalone="no"?>
<!DOCTYPE svg PUBLIC "-//W3C//DTD SVG 1.1//EN"
  "http://www.w3.org/Graphics/SVG/1.1/DTD/svg11.dtd">
<svg height="432pt" version="1.1" viewBox="0 0 864 432" width="864pt" xmlns="http://www.w3.org/2000/svg" xmlns:xlink="http://www.w3.org/1999/xlink">
 <metadata>
  <rdf:RDF xmlns:cc="http://creativecommons.org/ns#" xmlns:dc="http://purl.org/dc/elements/1.1/" xmlns:rdf="http://www.w3.org/1999/02/22-rdf-syntax-ns#">
   <cc:Work>
    <dc:type rdf:resource="http://purl.org/dc/dcmitype/StillImage"/>
    <dc:date>2025-04-30T10:54:22.529903</dc:date>
    <dc:format>image/svg+xml</dc:format>
    <dc:creator>
     <cc:Agent>
      <dc:title>Matplotlib v3.4.3, https://matplotlib.org/</dc:title>
     </cc:Agent>
    </dc:creator>
   </cc:Work>
  </rdf:RDF>
 </metadata>
 <defs>
  <style type="text/css">*{stroke-linecap:butt;stroke-linejoin:round;}</style>
 </defs>
 <g id="figure_1">
  <g id="patch_1">
   <path d="M 0 432 
L 864 432 
L 864 0 
L 0 0 
z
" style="fill:#ffffff;"/>
  </g>
  <g id="axes_1">
   <g id="patch_2">
    <path d="M 54.2 390.04 
L 853.2 390.04 
L 853.2 10.8 
L 54.2 10.8 
z
" style="fill:#ffffff;"/>
   </g>
   <g id="matplotlib.axis_1">
    <g id="xtick_1">
     <g id="line2d_1">
      <path clip-path="url(#p1c85e46b45)" d="M 155.083838 390.04 
L 155.083838 10.8 
" style="fill:none;stroke:#b0b0b0;stroke-dasharray:1.85,0.8;stroke-dashoffset:0;stroke-width:0.5;"/>
     </g>
     <g id="line2d_2">
      <defs>
       <path d="M 0 0 
L 0 3.5 
" id="m300d4d4c1a" style="stroke:#000000;stroke-width:0.8;"/>
      </defs>
      <g>
       <use style="stroke:#000000;stroke-width:0.8;" x="155.083838" xlink:href="#m300d4d4c1a" y="390.04"/>
      </g>
     </g>
     <g id="text_1">
      <!-- 10 -->
      <g transform="translate(148.721338 404.638438)scale(0.1 -0.1)">
       <defs>
        <path d="M 794 531 
L 1825 531 
L 1825 4091 
L 703 3866 
L 703 4441 
L 1819 4666 
L 2450 4666 
L 2450 531 
L 3481 531 
L 3481 0 
L 794 0 
L 794 531 
z
" id="DejaVuSans-31" transform="scale(0.015625)"/>
        <path d="M 2034 4250 
Q 1547 4250 1301 3770 
Q 1056 3291 1056 2328 
Q 1056 1369 1301 889 
Q 1547 409 2034 409 
Q 2525 409 2770 889 
Q 3016 1369 3016 2328 
Q 3016 3291 2770 3770 
Q 2525 4250 2034 4250 
z
M 2034 4750 
Q 2819 4750 3233 4129 
Q 3647 3509 3647 2328 
Q 3647 1150 3233 529 
Q 2819 -91 2034 -91 
Q 1250 -91 836 529 
Q 422 1150 422 2328 
Q 422 3509 836 4129 
Q 1250 4750 2034 4750 
z
" id="DejaVuSans-30" transform="scale(0.015625)"/>
       </defs>
       <use xlink:href="#DejaVuSans-31"/>
       <use x="63.623047" xlink:href="#DejaVuSans-30"/>
      </g>
     </g>
    </g>
    <g id="xtick_2">
     <g id="line2d_3">
      <path clip-path="url(#p1c85e46b45)" d="M 316.49798 390.04 
L 316.49798 10.8 
" style="fill:none;stroke:#b0b0b0;stroke-dasharray:1.85,0.8;stroke-dashoffset:0;stroke-width:0.5;"/>
     </g>
     <g id="line2d_4">
      <g>
       <use style="stroke:#000000;stroke-width:0.8;" x="316.49798" xlink:href="#m300d4d4c1a" y="390.04"/>
      </g>
     </g>
     <g id="text_2">
      <!-- 20 -->
      <g transform="translate(310.13548 404.638438)scale(0.1 -0.1)">
       <defs>
        <path d="M 1228 531 
L 3431 531 
L 3431 0 
L 469 0 
L 469 531 
Q 828 903 1448 1529 
Q 2069 2156 2228 2338 
Q 2531 2678 2651 2914 
Q 2772 3150 2772 3378 
Q 2772 3750 2511 3984 
Q 2250 4219 1831 4219 
Q 1534 4219 1204 4116 
Q 875 4013 500 3803 
L 500 4441 
Q 881 4594 1212 4672 
Q 1544 4750 1819 4750 
Q 2544 4750 2975 4387 
Q 3406 4025 3406 3419 
Q 3406 3131 3298 2873 
Q 3191 2616 2906 2266 
Q 2828 2175 2409 1742 
Q 1991 1309 1228 531 
z
" id="DejaVuSans-32" transform="scale(0.015625)"/>
       </defs>
       <use xlink:href="#DejaVuSans-32"/>
       <use x="63.623047" xlink:href="#DejaVuSans-30"/>
      </g>
     </g>
    </g>
    <g id="xtick_3">
     <g id="line2d_5">
      <path clip-path="url(#p1c85e46b45)" d="M 477.912121 390.04 
L 477.912121 10.8 
" style="fill:none;stroke:#b0b0b0;stroke-dasharray:1.85,0.8;stroke-dashoffset:0;stroke-width:0.5;"/>
     </g>
     <g id="line2d_6">
      <g>
       <use style="stroke:#000000;stroke-width:0.8;" x="477.912121" xlink:href="#m300d4d4c1a" y="390.04"/>
      </g>
     </g>
     <g id="text_3">
      <!-- 30 -->
      <g transform="translate(471.549621 404.638438)scale(0.1 -0.1)">
       <defs>
        <path d="M 2597 2516 
Q 3050 2419 3304 2112 
Q 3559 1806 3559 1356 
Q 3559 666 3084 287 
Q 2609 -91 1734 -91 
Q 1441 -91 1130 -33 
Q 819 25 488 141 
L 488 750 
Q 750 597 1062 519 
Q 1375 441 1716 441 
Q 2309 441 2620 675 
Q 2931 909 2931 1356 
Q 2931 1769 2642 2001 
Q 2353 2234 1838 2234 
L 1294 2234 
L 1294 2753 
L 1863 2753 
Q 2328 2753 2575 2939 
Q 2822 3125 2822 3475 
Q 2822 3834 2567 4026 
Q 2313 4219 1838 4219 
Q 1578 4219 1281 4162 
Q 984 4106 628 3988 
L 628 4550 
Q 988 4650 1302 4700 
Q 1616 4750 1894 4750 
Q 2613 4750 3031 4423 
Q 3450 4097 3450 3541 
Q 3450 3153 3228 2886 
Q 3006 2619 2597 2516 
z
" id="DejaVuSans-33" transform="scale(0.015625)"/>
       </defs>
       <use xlink:href="#DejaVuSans-33"/>
       <use x="63.623047" xlink:href="#DejaVuSans-30"/>
      </g>
     </g>
    </g>
    <g id="xtick_4">
     <g id="line2d_7">
      <path clip-path="url(#p1c85e46b45)" d="M 639.326263 390.04 
L 639.326263 10.8 
" style="fill:none;stroke:#b0b0b0;stroke-dasharray:1.85,0.8;stroke-dashoffset:0;stroke-width:0.5;"/>
     </g>
     <g id="line2d_8">
      <g>
       <use style="stroke:#000000;stroke-width:0.8;" x="639.326263" xlink:href="#m300d4d4c1a" y="390.04"/>
      </g>
     </g>
     <g id="text_4">
      <!-- 40 -->
      <g transform="translate(632.963763 404.638438)scale(0.1 -0.1)">
       <defs>
        <path d="M 2419 4116 
L 825 1625 
L 2419 1625 
L 2419 4116 
z
M 2253 4666 
L 3047 4666 
L 3047 1625 
L 3713 1625 
L 3713 1100 
L 3047 1100 
L 3047 0 
L 2419 0 
L 2419 1100 
L 313 1100 
L 313 1709 
L 2253 4666 
z
" id="DejaVuSans-34" transform="scale(0.015625)"/>
       </defs>
       <use xlink:href="#DejaVuSans-34"/>
       <use x="63.623047" xlink:href="#DejaVuSans-30"/>
      </g>
     </g>
    </g>
    <g id="xtick_5">
     <g id="line2d_9">
      <path clip-path="url(#p1c85e46b45)" d="M 800.740404 390.04 
L 800.740404 10.8 
" style="fill:none;stroke:#b0b0b0;stroke-dasharray:1.85,0.8;stroke-dashoffset:0;stroke-width:0.5;"/>
     </g>
     <g id="line2d_10">
      <g>
       <use style="stroke:#000000;stroke-width:0.8;" x="800.740404" xlink:href="#m300d4d4c1a" y="390.04"/>
      </g>
     </g>
     <g id="text_5">
      <!-- 50 -->
      <g transform="translate(794.377904 404.638438)scale(0.1 -0.1)">
       <defs>
        <path d="M 691 4666 
L 3169 4666 
L 3169 4134 
L 1269 4134 
L 1269 2991 
Q 1406 3038 1543 3061 
Q 1681 3084 1819 3084 
Q 2600 3084 3056 2656 
Q 3513 2228 3513 1497 
Q 3513 744 3044 326 
Q 2575 -91 1722 -91 
Q 1428 -91 1123 -41 
Q 819 9 494 109 
L 494 744 
Q 775 591 1075 516 
Q 1375 441 1709 441 
Q 2250 441 2565 725 
Q 2881 1009 2881 1497 
Q 2881 1984 2565 2268 
Q 2250 2553 1709 2553 
Q 1456 2553 1204 2497 
Q 953 2441 691 2322 
L 691 4666 
z
" id="DejaVuSans-35" transform="scale(0.015625)"/>
       </defs>
       <use xlink:href="#DejaVuSans-35"/>
       <use x="63.623047" xlink:href="#DejaVuSans-30"/>
      </g>
     </g>
    </g>
    <g id="text_6">
     <!-- Bit -->
     <g transform="translate(446.920312 418.316562)scale(0.1 -0.1)">
      <defs>
       <path d="M 1259 2228 
L 1259 519 
L 2272 519 
Q 2781 519 3026 730 
Q 3272 941 3272 1375 
Q 3272 1813 3026 2020 
Q 2781 2228 2272 2228 
L 1259 2228 
z
M 1259 4147 
L 1259 2741 
L 2194 2741 
Q 2656 2741 2882 2914 
Q 3109 3088 3109 3444 
Q 3109 3797 2882 3972 
Q 2656 4147 2194 4147 
L 1259 4147 
z
M 628 4666 
L 2241 4666 
Q 2963 4666 3353 4366 
Q 3744 4066 3744 3513 
Q 3744 3084 3544 2831 
Q 3344 2578 2956 2516 
Q 3422 2416 3680 2098 
Q 3938 1781 3938 1306 
Q 3938 681 3513 340 
Q 3088 0 2303 0 
L 628 0 
L 628 4666 
z
" id="DejaVuSans-42" transform="scale(0.015625)"/>
       <path d="M 603 3500 
L 1178 3500 
L 1178 0 
L 603 0 
L 603 3500 
z
M 603 4863 
L 1178 4863 
L 1178 4134 
L 603 4134 
L 603 4863 
z
" id="DejaVuSans-69" transform="scale(0.015625)"/>
       <path d="M 1172 4494 
L 1172 3500 
L 2356 3500 
L 2356 3053 
L 1172 3053 
L 1172 1153 
Q 1172 725 1289 603 
Q 1406 481 1766 481 
L 2356 481 
L 2356 0 
L 1766 0 
Q 1100 0 847 248 
Q 594 497 594 1153 
L 594 3053 
L 172 3053 
L 172 3500 
L 594 3500 
L 594 4494 
L 1172 4494 
z
" id="DejaVuSans-74" transform="scale(0.015625)"/>
      </defs>
      <use xlink:href="#DejaVuSans-42"/>
      <use x="68.603516" xlink:href="#DejaVuSans-69"/>
      <use x="96.386719" xlink:href="#DejaVuSans-74"/>
     </g>
    </g>
   </g>
   <g id="matplotlib.axis_2">
    <g id="ytick_1">
     <g id="line2d_11">
      <path clip-path="url(#p1c85e46b45)" d="M 54.2 372.801818 
L 853.2 372.801818 
" style="fill:none;stroke:#b0b0b0;stroke-dasharray:1.85,0.8;stroke-dashoffset:0;stroke-width:0.5;"/>
     </g>
     <g id="line2d_12">
      <defs>
       <path d="M 0 0 
L -3.5 0 
" id="m0f1d9683e6" style="stroke:#000000;stroke-width:0.8;"/>
      </defs>
      <g>
       <use style="stroke:#000000;stroke-width:0.8;" x="54.2" xlink:href="#m0f1d9683e6" y="372.801818"/>
      </g>
     </g>
     <g id="text_7">
      <!-- 0.00 -->
      <g transform="translate(24.934375 376.601037)scale(0.1 -0.1)">
       <defs>
        <path d="M 684 794 
L 1344 794 
L 1344 0 
L 684 0 
L 684 794 
z
" id="DejaVuSans-2e" transform="scale(0.015625)"/>
       </defs>
       <use xlink:href="#DejaVuSans-30"/>
       <use x="63.623047" xlink:href="#DejaVuSans-2e"/>
       <use x="95.410156" xlink:href="#DejaVuSans-30"/>
       <use x="159.033203" xlink:href="#DejaVuSans-30"/>
      </g>
     </g>
    </g>
    <g id="ytick_2">
     <g id="line2d_13">
      <path clip-path="url(#p1c85e46b45)" d="M 54.2 328.594223 
L 853.2 328.594223 
" style="fill:none;stroke:#b0b0b0;stroke-dasharray:1.85,0.8;stroke-dashoffset:0;stroke-width:0.5;"/>
     </g>
     <g id="line2d_14">
      <g>
       <use style="stroke:#000000;stroke-width:0.8;" x="54.2" xlink:href="#m0f1d9683e6" y="328.594223"/>
      </g>
     </g>
     <g id="text_8">
      <!-- 0.05 -->
      <g transform="translate(24.934375 332.393442)scale(0.1 -0.1)">
       <use xlink:href="#DejaVuSans-30"/>
       <use x="63.623047" xlink:href="#DejaVuSans-2e"/>
       <use x="95.410156" xlink:href="#DejaVuSans-30"/>
       <use x="159.033203" xlink:href="#DejaVuSans-35"/>
      </g>
     </g>
    </g>
    <g id="ytick_3">
     <g id="line2d_15">
      <path clip-path="url(#p1c85e46b45)" d="M 54.2 284.386628 
L 853.2 284.386628 
" style="fill:none;stroke:#b0b0b0;stroke-dasharray:1.85,0.8;stroke-dashoffset:0;stroke-width:0.5;"/>
     </g>
     <g id="line2d_16">
      <g>
       <use style="stroke:#000000;stroke-width:0.8;" x="54.2" xlink:href="#m0f1d9683e6" y="284.386628"/>
      </g>
     </g>
     <g id="text_9">
      <!-- 0.10 -->
      <g transform="translate(24.934375 288.185846)scale(0.1 -0.1)">
       <use xlink:href="#DejaVuSans-30"/>
       <use x="63.623047" xlink:href="#DejaVuSans-2e"/>
       <use x="95.410156" xlink:href="#DejaVuSans-31"/>
       <use x="159.033203" xlink:href="#DejaVuSans-30"/>
      </g>
     </g>
    </g>
    <g id="ytick_4">
     <g id="line2d_17">
      <path clip-path="url(#p1c85e46b45)" d="M 54.2 240.179032 
L 853.2 240.179032 
" style="fill:none;stroke:#b0b0b0;stroke-dasharray:1.85,0.8;stroke-dashoffset:0;stroke-width:0.5;"/>
     </g>
     <g id="line2d_18">
      <g>
       <use style="stroke:#000000;stroke-width:0.8;" x="54.2" xlink:href="#m0f1d9683e6" y="240.179032"/>
      </g>
     </g>
     <g id="text_10">
      <!-- 0.15 -->
      <g transform="translate(24.934375 243.978251)scale(0.1 -0.1)">
       <use xlink:href="#DejaVuSans-30"/>
       <use x="63.623047" xlink:href="#DejaVuSans-2e"/>
       <use x="95.410156" xlink:href="#DejaVuSans-31"/>
       <use x="159.033203" xlink:href="#DejaVuSans-35"/>
      </g>
     </g>
    </g>
    <g id="ytick_5">
     <g id="line2d_19">
      <path clip-path="url(#p1c85e46b45)" d="M 54.2 195.971437 
L 853.2 195.971437 
" style="fill:none;stroke:#b0b0b0;stroke-dasharray:1.85,0.8;stroke-dashoffset:0;stroke-width:0.5;"/>
     </g>
     <g id="line2d_20">
      <g>
       <use style="stroke:#000000;stroke-width:0.8;" x="54.2" xlink:href="#m0f1d9683e6" y="195.971437"/>
      </g>
     </g>
     <g id="text_11">
      <!-- 0.20 -->
      <g transform="translate(24.934375 199.770656)scale(0.1 -0.1)">
       <use xlink:href="#DejaVuSans-30"/>
       <use x="63.623047" xlink:href="#DejaVuSans-2e"/>
       <use x="95.410156" xlink:href="#DejaVuSans-32"/>
       <use x="159.033203" xlink:href="#DejaVuSans-30"/>
      </g>
     </g>
    </g>
    <g id="ytick_6">
     <g id="line2d_21">
      <path clip-path="url(#p1c85e46b45)" d="M 54.2 151.763842 
L 853.2 151.763842 
" style="fill:none;stroke:#b0b0b0;stroke-dasharray:1.85,0.8;stroke-dashoffset:0;stroke-width:0.5;"/>
     </g>
     <g id="line2d_22">
      <g>
       <use style="stroke:#000000;stroke-width:0.8;" x="54.2" xlink:href="#m0f1d9683e6" y="151.763842"/>
      </g>
     </g>
     <g id="text_12">
      <!-- 0.25 -->
      <g transform="translate(24.934375 155.56306)scale(0.1 -0.1)">
       <use xlink:href="#DejaVuSans-30"/>
       <use x="63.623047" xlink:href="#DejaVuSans-2e"/>
       <use x="95.410156" xlink:href="#DejaVuSans-32"/>
       <use x="159.033203" xlink:href="#DejaVuSans-35"/>
      </g>
     </g>
    </g>
    <g id="ytick_7">
     <g id="line2d_23">
      <path clip-path="url(#p1c85e46b45)" d="M 54.2 107.556246 
L 853.2 107.556246 
" style="fill:none;stroke:#b0b0b0;stroke-dasharray:1.85,0.8;stroke-dashoffset:0;stroke-width:0.5;"/>
     </g>
     <g id="line2d_24">
      <g>
       <use style="stroke:#000000;stroke-width:0.8;" x="54.2" xlink:href="#m0f1d9683e6" y="107.556246"/>
      </g>
     </g>
     <g id="text_13">
      <!-- 0.30 -->
      <g transform="translate(24.934375 111.355465)scale(0.1 -0.1)">
       <use xlink:href="#DejaVuSans-30"/>
       <use x="63.623047" xlink:href="#DejaVuSans-2e"/>
       <use x="95.410156" xlink:href="#DejaVuSans-33"/>
       <use x="159.033203" xlink:href="#DejaVuSans-30"/>
      </g>
     </g>
    </g>
    <g id="ytick_8">
     <g id="line2d_25">
      <path clip-path="url(#p1c85e46b45)" d="M 54.2 63.348651 
L 853.2 63.348651 
" style="fill:none;stroke:#b0b0b0;stroke-dasharray:1.85,0.8;stroke-dashoffset:0;stroke-width:0.5;"/>
     </g>
     <g id="line2d_26">
      <g>
       <use style="stroke:#000000;stroke-width:0.8;" x="54.2" xlink:href="#m0f1d9683e6" y="63.348651"/>
      </g>
     </g>
     <g id="text_14">
      <!-- 0.35 -->
      <g transform="translate(24.934375 67.14787)scale(0.1 -0.1)">
       <use xlink:href="#DejaVuSans-30"/>
       <use x="63.623047" xlink:href="#DejaVuSans-2e"/>
       <use x="95.410156" xlink:href="#DejaVuSans-33"/>
       <use x="159.033203" xlink:href="#DejaVuSans-35"/>
      </g>
     </g>
    </g>
    <g id="ytick_9">
     <g id="line2d_27">
      <path clip-path="url(#p1c85e46b45)" d="M 54.2 19.141056 
L 853.2 19.141056 
" style="fill:none;stroke:#b0b0b0;stroke-dasharray:1.85,0.8;stroke-dashoffset:0;stroke-width:0.5;"/>
     </g>
     <g id="line2d_28">
      <g>
       <use style="stroke:#000000;stroke-width:0.8;" x="54.2" xlink:href="#m0f1d9683e6" y="19.141056"/>
      </g>
     </g>
     <g id="text_15">
      <!-- 0.40 -->
      <g transform="translate(24.934375 22.940274)scale(0.1 -0.1)">
       <use xlink:href="#DejaVuSans-30"/>
       <use x="63.623047" xlink:href="#DejaVuSans-2e"/>
       <use x="95.410156" xlink:href="#DejaVuSans-34"/>
       <use x="159.033203" xlink:href="#DejaVuSans-30"/>
      </g>
     </g>
    </g>
    <g id="text_16">
     <!-- SDC (%) -->
     <g transform="translate(18.854688 221.177031)rotate(-90)scale(0.1 -0.1)">
      <defs>
       <path d="M 3425 4513 
L 3425 3897 
Q 3066 4069 2747 4153 
Q 2428 4238 2131 4238 
Q 1616 4238 1336 4038 
Q 1056 3838 1056 3469 
Q 1056 3159 1242 3001 
Q 1428 2844 1947 2747 
L 2328 2669 
Q 3034 2534 3370 2195 
Q 3706 1856 3706 1288 
Q 3706 609 3251 259 
Q 2797 -91 1919 -91 
Q 1588 -91 1214 -16 
Q 841 59 441 206 
L 441 856 
Q 825 641 1194 531 
Q 1563 422 1919 422 
Q 2459 422 2753 634 
Q 3047 847 3047 1241 
Q 3047 1584 2836 1778 
Q 2625 1972 2144 2069 
L 1759 2144 
Q 1053 2284 737 2584 
Q 422 2884 422 3419 
Q 422 4038 858 4394 
Q 1294 4750 2059 4750 
Q 2388 4750 2728 4690 
Q 3069 4631 3425 4513 
z
" id="DejaVuSans-53" transform="scale(0.015625)"/>
       <path d="M 1259 4147 
L 1259 519 
L 2022 519 
Q 2988 519 3436 956 
Q 3884 1394 3884 2338 
Q 3884 3275 3436 3711 
Q 2988 4147 2022 4147 
L 1259 4147 
z
M 628 4666 
L 1925 4666 
Q 3281 4666 3915 4102 
Q 4550 3538 4550 2338 
Q 4550 1131 3912 565 
Q 3275 0 1925 0 
L 628 0 
L 628 4666 
z
" id="DejaVuSans-44" transform="scale(0.015625)"/>
       <path d="M 4122 4306 
L 4122 3641 
Q 3803 3938 3442 4084 
Q 3081 4231 2675 4231 
Q 1875 4231 1450 3742 
Q 1025 3253 1025 2328 
Q 1025 1406 1450 917 
Q 1875 428 2675 428 
Q 3081 428 3442 575 
Q 3803 722 4122 1019 
L 4122 359 
Q 3791 134 3420 21 
Q 3050 -91 2638 -91 
Q 1578 -91 968 557 
Q 359 1206 359 2328 
Q 359 3453 968 4101 
Q 1578 4750 2638 4750 
Q 3056 4750 3426 4639 
Q 3797 4528 4122 4306 
z
" id="DejaVuSans-43" transform="scale(0.015625)"/>
       <path id="DejaVuSans-20" transform="scale(0.015625)"/>
       <path d="M 1984 4856 
Q 1566 4138 1362 3434 
Q 1159 2731 1159 2009 
Q 1159 1288 1364 580 
Q 1569 -128 1984 -844 
L 1484 -844 
Q 1016 -109 783 600 
Q 550 1309 550 2009 
Q 550 2706 781 3412 
Q 1013 4119 1484 4856 
L 1984 4856 
z
" id="DejaVuSans-28" transform="scale(0.015625)"/>
       <path d="M 4653 2053 
Q 4381 2053 4226 1822 
Q 4072 1591 4072 1178 
Q 4072 772 4226 539 
Q 4381 306 4653 306 
Q 4919 306 5073 539 
Q 5228 772 5228 1178 
Q 5228 1588 5073 1820 
Q 4919 2053 4653 2053 
z
M 4653 2450 
Q 5147 2450 5437 2106 
Q 5728 1763 5728 1178 
Q 5728 594 5436 251 
Q 5144 -91 4653 -91 
Q 4153 -91 3862 251 
Q 3572 594 3572 1178 
Q 3572 1766 3864 2108 
Q 4156 2450 4653 2450 
z
M 1428 4353 
Q 1159 4353 1004 4120 
Q 850 3888 850 3481 
Q 850 3069 1003 2837 
Q 1156 2606 1428 2606 
Q 1700 2606 1854 2837 
Q 2009 3069 2009 3481 
Q 2009 3884 1853 4118 
Q 1697 4353 1428 4353 
z
M 4250 4750 
L 4750 4750 
L 1831 -91 
L 1331 -91 
L 4250 4750 
z
M 1428 4750 
Q 1922 4750 2215 4408 
Q 2509 4066 2509 3481 
Q 2509 2891 2217 2550 
Q 1925 2209 1428 2209 
Q 931 2209 642 2551 
Q 353 2894 353 3481 
Q 353 4063 643 4406 
Q 934 4750 1428 4750 
z
" id="DejaVuSans-25" transform="scale(0.015625)"/>
       <path d="M 513 4856 
L 1013 4856 
Q 1481 4119 1714 3412 
Q 1947 2706 1947 2009 
Q 1947 1309 1714 600 
Q 1481 -109 1013 -844 
L 513 -844 
Q 928 -128 1133 580 
Q 1338 1288 1338 2009 
Q 1338 2731 1133 3434 
Q 928 4138 513 4856 
z
" id="DejaVuSans-29" transform="scale(0.015625)"/>
      </defs>
      <use xlink:href="#DejaVuSans-53"/>
      <use x="63.476562" xlink:href="#DejaVuSans-44"/>
      <use x="140.478516" xlink:href="#DejaVuSans-43"/>
      <use x="210.302734" xlink:href="#DejaVuSans-20"/>
      <use x="242.089844" xlink:href="#DejaVuSans-28"/>
      <use x="281.103516" xlink:href="#DejaVuSans-25"/>
      <use x="376.123047" xlink:href="#DejaVuSans-29"/>
     </g>
    </g>
   </g>
   <g id="line2d_29">
    <path clip-path="url(#p1c85e46b45)" d="M 90.518182 372.801818 
L 122.80101 372.801818 
L 155.083838 372.801818 
L 187.366667 372.801818 
L 219.649495 372.801818 
L 251.932323 372.801818 
L 381.063636 313.858358 
L 510.194949 197.872839 
L 639.326263 220.689662 
L 671.609091 213.084054 
L 703.891919 243.506486 
L 736.174747 258.717701 
L 768.457576 266.323309 
L 816.881818 281.534525 
" style="fill:none;stroke:#1f77b4;stroke-linecap:square;stroke-width:1.5;"/>
    <defs>
     <path d="M 0 3 
C 0.795609 3 1.55874 2.683901 2.12132 2.12132 
C 2.683901 1.55874 3 0.795609 3 0 
C 3 -0.795609 2.683901 -1.55874 2.12132 -2.12132 
C 1.55874 -2.683901 0.795609 -3 0 -3 
C -0.795609 -3 -1.55874 -2.683901 -2.12132 -2.12132 
C -2.683901 -1.55874 -3 -0.795609 -3 0 
C -3 0.795609 -2.683901 1.55874 -2.12132 2.12132 
C -1.55874 2.683901 -0.795609 3 0 3 
z
" id="m0c90beba07" style="stroke:#1f77b4;"/>
    </defs>
    <g clip-path="url(#p1c85e46b45)">
     <use style="fill:#1f77b4;stroke:#1f77b4;" x="90.518182" xlink:href="#m0c90beba07" y="372.801818"/>
     <use style="fill:#1f77b4;stroke:#1f77b4;" x="122.80101" xlink:href="#m0c90beba07" y="372.801818"/>
     <use style="fill:#1f77b4;stroke:#1f77b4;" x="155.083838" xlink:href="#m0c90beba07" y="372.801818"/>
     <use style="fill:#1f77b4;stroke:#1f77b4;" x="187.366667" xlink:href="#m0c90beba07" y="372.801818"/>
     <use style="fill:#1f77b4;stroke:#1f77b4;" x="219.649495" xlink:href="#m0c90beba07" y="372.801818"/>
     <use style="fill:#1f77b4;stroke:#1f77b4;" x="251.932323" xlink:href="#m0c90beba07" y="372.801818"/>
     <use style="fill:#1f77b4;stroke:#1f77b4;" x="381.063636" xlink:href="#m0c90beba07" y="313.858358"/>
     <use style="fill:#1f77b4;stroke:#1f77b4;" x="510.194949" xlink:href="#m0c90beba07" y="197.872839"/>
     <use style="fill:#1f77b4;stroke:#1f77b4;" x="639.326263" xlink:href="#m0c90beba07" y="220.689662"/>
     <use style="fill:#1f77b4;stroke:#1f77b4;" x="671.609091" xlink:href="#m0c90beba07" y="213.084054"/>
     <use style="fill:#1f77b4;stroke:#1f77b4;" x="703.891919" xlink:href="#m0c90beba07" y="243.506486"/>
     <use style="fill:#1f77b4;stroke:#1f77b4;" x="736.174747" xlink:href="#m0c90beba07" y="258.717701"/>
     <use style="fill:#1f77b4;stroke:#1f77b4;" x="768.457576" xlink:href="#m0c90beba07" y="266.323309"/>
     <use style="fill:#1f77b4;stroke:#1f77b4;" x="816.881818" xlink:href="#m0c90beba07" y="281.534525"/>
    </g>
   </g>
   <g id="line2d_30">
    <path clip-path="url(#p1c85e46b45)" d="M 90.518182 372.801818 
L 122.80101 372.801818 
L 155.083838 364.460762 
L 187.366667 364.460762 
L 219.649495 353.339355 
L 251.932323 344.998299 
L 381.063636 303.293021 
L 510.194949 28.038182 
L 639.326263 317.19478 
L 671.609091 322.755484 
L 703.891919 350.559003 
L 736.174747 350.559003 
L 768.457576 361.680411 
L 816.881818 372.801818 
" style="fill:none;stroke:#ff7f0e;stroke-linecap:square;stroke-width:1.5;"/>
    <defs>
     <path d="M 0 3 
C 0.795609 3 1.55874 2.683901 2.12132 2.12132 
C 2.683901 1.55874 3 0.795609 3 0 
C 3 -0.795609 2.683901 -1.55874 2.12132 -2.12132 
C 1.55874 -2.683901 0.795609 -3 0 -3 
C -0.795609 -3 -1.55874 -2.683901 -2.12132 -2.12132 
C -2.683901 -1.55874 -3 -0.795609 -3 0 
C -3 0.795609 -2.683901 1.55874 -2.12132 2.12132 
C -1.55874 2.683901 -0.795609 3 0 3 
z
" id="ma4b5b719ce" style="stroke:#ff7f0e;"/>
    </defs>
    <g clip-path="url(#p1c85e46b45)">
     <use style="fill:#ff7f0e;stroke:#ff7f0e;" x="90.518182" xlink:href="#ma4b5b719ce" y="372.801818"/>
     <use style="fill:#ff7f0e;stroke:#ff7f0e;" x="122.80101" xlink:href="#ma4b5b719ce" y="372.801818"/>
     <use style="fill:#ff7f0e;stroke:#ff7f0e;" x="155.083838" xlink:href="#ma4b5b719ce" y="364.460762"/>
     <use style="fill:#ff7f0e;stroke:#ff7f0e;" x="187.366667" xlink:href="#ma4b5b719ce" y="364.460762"/>
     <use style="fill:#ff7f0e;stroke:#ff7f0e;" x="219.649495" xlink:href="#ma4b5b719ce" y="353.339355"/>
     <use style="fill:#ff7f0e;stroke:#ff7f0e;" x="251.932323" xlink:href="#ma4b5b719ce" y="344.998299"/>
     <use style="fill:#ff7f0e;stroke:#ff7f0e;" x="381.063636" xlink:href="#ma4b5b719ce" y="303.293021"/>
     <use style="fill:#ff7f0e;stroke:#ff7f0e;" x="510.194949" xlink:href="#ma4b5b719ce" y="28.038182"/>
     <use style="fill:#ff7f0e;stroke:#ff7f0e;" x="639.326263" xlink:href="#ma4b5b719ce" y="317.19478"/>
     <use style="fill:#ff7f0e;stroke:#ff7f0e;" x="671.609091" xlink:href="#ma4b5b719ce" y="322.755484"/>
     <use style="fill:#ff7f0e;stroke:#ff7f0e;" x="703.891919" xlink:href="#ma4b5b719ce" y="350.559003"/>
     <use style="fill:#ff7f0e;stroke:#ff7f0e;" x="736.174747" xlink:href="#ma4b5b719ce" y="350.559003"/>
     <use style="fill:#ff7f0e;stroke:#ff7f0e;" x="768.457576" xlink:href="#ma4b5b719ce" y="361.680411"/>
     <use style="fill:#ff7f0e;stroke:#ff7f0e;" x="816.881818" xlink:href="#ma4b5b719ce" y="372.801818"/>
    </g>
   </g>
   <g id="line2d_31">
    <path clip-path="url(#p1c85e46b45)" d="M 90.518182 372.801818 
L 122.80101 344.773948 
L 155.083838 334.581995 
L 187.366667 278.526255 
L 219.649495 232.662467 
L 251.932323 230.114479 
L 381.063636 56.851281 
L 510.194949 102.715069 
L 639.326263 329.486019 
L 671.609091 321.842054 
L 703.891919 339.677972 
L 736.174747 339.677972 
L 768.457576 349.869924 
L 816.881818 372.801818 
" style="fill:none;stroke:#2ca02c;stroke-linecap:square;stroke-width:1.5;"/>
    <defs>
     <path d="M 0 3 
C 0.795609 3 1.55874 2.683901 2.12132 2.12132 
C 2.683901 1.55874 3 0.795609 3 0 
C 3 -0.795609 2.683901 -1.55874 2.12132 -2.12132 
C 1.55874 -2.683901 0.795609 -3 0 -3 
C -0.795609 -3 -1.55874 -2.683901 -2.12132 -2.12132 
C -2.683901 -1.55874 -3 -0.795609 -3 0 
C -3 0.795609 -2.683901 1.55874 -2.12132 2.12132 
C -1.55874 2.683901 -0.795609 3 0 3 
z
" id="m100b5c8ad4" style="stroke:#2ca02c;"/>
    </defs>
    <g clip-path="url(#p1c85e46b45)">
     <use style="fill:#2ca02c;stroke:#2ca02c;" x="90.518182" xlink:href="#m100b5c8ad4" y="372.801818"/>
     <use style="fill:#2ca02c;stroke:#2ca02c;" x="122.80101" xlink:href="#m100b5c8ad4" y="344.773948"/>
     <use style="fill:#2ca02c;stroke:#2ca02c;" x="155.083838" xlink:href="#m100b5c8ad4" y="334.581995"/>
     <use style="fill:#2ca02c;stroke:#2ca02c;" x="187.366667" xlink:href="#m100b5c8ad4" y="278.526255"/>
     <use style="fill:#2ca02c;stroke:#2ca02c;" x="219.649495" xlink:href="#m100b5c8ad4" y="232.662467"/>
     <use style="fill:#2ca02c;stroke:#2ca02c;" x="251.932323" xlink:href="#m100b5c8ad4" y="230.114479"/>
     <use style="fill:#2ca02c;stroke:#2ca02c;" x="381.063636" xlink:href="#m100b5c8ad4" y="56.851281"/>
     <use style="fill:#2ca02c;stroke:#2ca02c;" x="510.194949" xlink:href="#m100b5c8ad4" y="102.715069"/>
     <use style="fill:#2ca02c;stroke:#2ca02c;" x="639.326263" xlink:href="#m100b5c8ad4" y="329.486019"/>
     <use style="fill:#2ca02c;stroke:#2ca02c;" x="671.609091" xlink:href="#m100b5c8ad4" y="321.842054"/>
     <use style="fill:#2ca02c;stroke:#2ca02c;" x="703.891919" xlink:href="#m100b5c8ad4" y="339.677972"/>
     <use style="fill:#2ca02c;stroke:#2ca02c;" x="736.174747" xlink:href="#m100b5c8ad4" y="339.677972"/>
     <use style="fill:#2ca02c;stroke:#2ca02c;" x="768.457576" xlink:href="#m100b5c8ad4" y="349.869924"/>
     <use style="fill:#2ca02c;stroke:#2ca02c;" x="816.881818" xlink:href="#m100b5c8ad4" y="372.801818"/>
    </g>
   </g>
   <g id="line2d_32">
    <path clip-path="url(#p1c85e46b45)" d="M 90.518182 372.801818 
L 122.80101 372.801818 
L 155.083838 372.801818 
L 187.366667 372.801818 
L 219.649495 372.801818 
L 251.932323 372.801818 
L 381.063636 372.801818 
L 510.194949 372.801818 
L 639.326263 372.801818 
L 671.609091 372.801818 
L 703.891919 372.801818 
L 736.174747 372.801818 
L 768.457576 372.801818 
L 816.881818 372.801818 
" style="fill:none;stroke:#d62728;stroke-linecap:square;stroke-width:1.5;"/>
    <defs>
     <path d="M 0 3 
C 0.795609 3 1.55874 2.683901 2.12132 2.12132 
C 2.683901 1.55874 3 0.795609 3 0 
C 3 -0.795609 2.683901 -1.55874 2.12132 -2.12132 
C 1.55874 -2.683901 0.795609 -3 0 -3 
C -0.795609 -3 -1.55874 -2.683901 -2.12132 -2.12132 
C -2.683901 -1.55874 -3 -0.795609 -3 0 
C -3 0.795609 -2.683901 1.55874 -2.12132 2.12132 
C -1.55874 2.683901 -0.795609 3 0 3 
z
" id="mc50774c8d6" style="stroke:#d62728;"/>
    </defs>
    <g clip-path="url(#p1c85e46b45)">
     <use style="fill:#d62728;stroke:#d62728;" x="90.518182" xlink:href="#mc50774c8d6" y="372.801818"/>
     <use style="fill:#d62728;stroke:#d62728;" x="122.80101" xlink:href="#mc50774c8d6" y="372.801818"/>
     <use style="fill:#d62728;stroke:#d62728;" x="155.083838" xlink:href="#mc50774c8d6" y="372.801818"/>
     <use style="fill:#d62728;stroke:#d62728;" x="187.366667" xlink:href="#mc50774c8d6" y="372.801818"/>
     <use style="fill:#d62728;stroke:#d62728;" x="219.649495" xlink:href="#mc50774c8d6" y="372.801818"/>
     <use style="fill:#d62728;stroke:#d62728;" x="251.932323" xlink:href="#mc50774c8d6" y="372.801818"/>
     <use style="fill:#d62728;stroke:#d62728;" x="381.063636" xlink:href="#mc50774c8d6" y="372.801818"/>
     <use style="fill:#d62728;stroke:#d62728;" x="510.194949" xlink:href="#mc50774c8d6" y="372.801818"/>
     <use style="fill:#d62728;stroke:#d62728;" x="639.326263" xlink:href="#mc50774c8d6" y="372.801818"/>
     <use style="fill:#d62728;stroke:#d62728;" x="671.609091" xlink:href="#mc50774c8d6" y="372.801818"/>
     <use style="fill:#d62728;stroke:#d62728;" x="703.891919" xlink:href="#mc50774c8d6" y="372.801818"/>
     <use style="fill:#d62728;stroke:#d62728;" x="736.174747" xlink:href="#mc50774c8d6" y="372.801818"/>
     <use style="fill:#d62728;stroke:#d62728;" x="768.457576" xlink:href="#mc50774c8d6" y="372.801818"/>
     <use style="fill:#d62728;stroke:#d62728;" x="816.881818" xlink:href="#mc50774c8d6" y="372.801818"/>
    </g>
   </g>
   <g id="patch_3">
    <path d="M 54.2 390.04 
L 54.2 10.8 
" style="fill:none;stroke:#000000;stroke-linecap:square;stroke-linejoin:miter;stroke-width:0.8;"/>
   </g>
   <g id="patch_4">
    <path d="M 853.2 390.04 
L 853.2 10.8 
" style="fill:none;stroke:#000000;stroke-linecap:square;stroke-linejoin:miter;stroke-width:0.8;"/>
   </g>
   <g id="patch_5">
    <path d="M 54.2 390.04 
L 853.2 390.04 
" style="fill:none;stroke:#000000;stroke-linecap:square;stroke-linejoin:miter;stroke-width:0.8;"/>
   </g>
   <g id="patch_6">
    <path d="M 54.2 10.8 
L 853.2 10.8 
" style="fill:none;stroke:#000000;stroke-linecap:square;stroke-linejoin:miter;stroke-width:0.8;"/>
   </g>
   <g id="legend_1">
    <g id="patch_7">
     <path d="M 795.34375 77.5125 
L 846.2 77.5125 
Q 848.2 77.5125 848.2 75.5125 
L 848.2 17.8 
Q 848.2 15.8 846.2 15.8 
L 795.34375 15.8 
Q 793.34375 15.8 793.34375 17.8 
L 793.34375 75.5125 
Q 793.34375 77.5125 795.34375 77.5125 
z
" style="fill:#ffffff;opacity:0.8;stroke:#cccccc;stroke-linejoin:miter;"/>
    </g>
    <g id="line2d_33">
     <path d="M 797.34375 23.898438 
L 817.34375 23.898438 
" style="fill:none;stroke:#1f77b4;stroke-linecap:square;stroke-width:1.5;"/>
    </g>
    <g id="line2d_34">
     <g>
      <use style="fill:#1f77b4;stroke:#1f77b4;" x="807.34375" xlink:href="#m0c90beba07" y="23.898438"/>
     </g>
    </g>
    <g id="text_17">
     <!-- mul -->
     <g transform="translate(825.34375 27.398438)scale(0.1 -0.1)">
      <defs>
       <path d="M 3328 2828 
Q 3544 3216 3844 3400 
Q 4144 3584 4550 3584 
Q 5097 3584 5394 3201 
Q 5691 2819 5691 2113 
L 5691 0 
L 5113 0 
L 5113 2094 
Q 5113 2597 4934 2840 
Q 4756 3084 4391 3084 
Q 3944 3084 3684 2787 
Q 3425 2491 3425 1978 
L 3425 0 
L 2847 0 
L 2847 2094 
Q 2847 2600 2669 2842 
Q 2491 3084 2119 3084 
Q 1678 3084 1418 2786 
Q 1159 2488 1159 1978 
L 1159 0 
L 581 0 
L 581 3500 
L 1159 3500 
L 1159 2956 
Q 1356 3278 1631 3431 
Q 1906 3584 2284 3584 
Q 2666 3584 2933 3390 
Q 3200 3197 3328 2828 
z
" id="DejaVuSans-6d" transform="scale(0.015625)"/>
       <path d="M 544 1381 
L 544 3500 
L 1119 3500 
L 1119 1403 
Q 1119 906 1312 657 
Q 1506 409 1894 409 
Q 2359 409 2629 706 
Q 2900 1003 2900 1516 
L 2900 3500 
L 3475 3500 
L 3475 0 
L 2900 0 
L 2900 538 
Q 2691 219 2414 64 
Q 2138 -91 1772 -91 
Q 1169 -91 856 284 
Q 544 659 544 1381 
z
M 1991 3584 
L 1991 3584 
z
" id="DejaVuSans-75" transform="scale(0.015625)"/>
       <path d="M 603 4863 
L 1178 4863 
L 1178 0 
L 603 0 
L 603 4863 
z
" id="DejaVuSans-6c" transform="scale(0.015625)"/>
      </defs>
      <use xlink:href="#DejaVuSans-6d"/>
      <use x="97.412109" xlink:href="#DejaVuSans-75"/>
      <use x="160.791016" xlink:href="#DejaVuSans-6c"/>
     </g>
    </g>
    <g id="line2d_35">
     <path d="M 797.34375 38.576563 
L 817.34375 38.576563 
" style="fill:none;stroke:#ff7f0e;stroke-linecap:square;stroke-width:1.5;"/>
    </g>
    <g id="line2d_36">
     <g>
      <use style="fill:#ff7f0e;stroke:#ff7f0e;" x="807.34375" xlink:href="#ma4b5b719ce" y="38.576563"/>
     </g>
    </g>
    <g id="text_18">
     <!-- sub -->
     <g transform="translate(825.34375 42.076563)scale(0.1 -0.1)">
      <defs>
       <path d="M 2834 3397 
L 2834 2853 
Q 2591 2978 2328 3040 
Q 2066 3103 1784 3103 
Q 1356 3103 1142 2972 
Q 928 2841 928 2578 
Q 928 2378 1081 2264 
Q 1234 2150 1697 2047 
L 1894 2003 
Q 2506 1872 2764 1633 
Q 3022 1394 3022 966 
Q 3022 478 2636 193 
Q 2250 -91 1575 -91 
Q 1294 -91 989 -36 
Q 684 19 347 128 
L 347 722 
Q 666 556 975 473 
Q 1284 391 1588 391 
Q 1994 391 2212 530 
Q 2431 669 2431 922 
Q 2431 1156 2273 1281 
Q 2116 1406 1581 1522 
L 1381 1569 
Q 847 1681 609 1914 
Q 372 2147 372 2553 
Q 372 3047 722 3315 
Q 1072 3584 1716 3584 
Q 2034 3584 2315 3537 
Q 2597 3491 2834 3397 
z
" id="DejaVuSans-73" transform="scale(0.015625)"/>
       <path d="M 3116 1747 
Q 3116 2381 2855 2742 
Q 2594 3103 2138 3103 
Q 1681 3103 1420 2742 
Q 1159 2381 1159 1747 
Q 1159 1113 1420 752 
Q 1681 391 2138 391 
Q 2594 391 2855 752 
Q 3116 1113 3116 1747 
z
M 1159 2969 
Q 1341 3281 1617 3432 
Q 1894 3584 2278 3584 
Q 2916 3584 3314 3078 
Q 3713 2572 3713 1747 
Q 3713 922 3314 415 
Q 2916 -91 2278 -91 
Q 1894 -91 1617 61 
Q 1341 213 1159 525 
L 1159 0 
L 581 0 
L 581 4863 
L 1159 4863 
L 1159 2969 
z
" id="DejaVuSans-62" transform="scale(0.015625)"/>
      </defs>
      <use xlink:href="#DejaVuSans-73"/>
      <use x="52.099609" xlink:href="#DejaVuSans-75"/>
      <use x="115.478516" xlink:href="#DejaVuSans-62"/>
     </g>
    </g>
    <g id="line2d_37">
     <path d="M 797.34375 53.254688 
L 817.34375 53.254688 
" style="fill:none;stroke:#2ca02c;stroke-linecap:square;stroke-width:1.5;"/>
    </g>
    <g id="line2d_38">
     <g>
      <use style="fill:#2ca02c;stroke:#2ca02c;" x="807.34375" xlink:href="#m100b5c8ad4" y="53.254688"/>
     </g>
    </g>
    <g id="text_19">
     <!-- add -->
     <g transform="translate(825.34375 56.754688)scale(0.1 -0.1)">
      <defs>
       <path d="M 2194 1759 
Q 1497 1759 1228 1600 
Q 959 1441 959 1056 
Q 959 750 1161 570 
Q 1363 391 1709 391 
Q 2188 391 2477 730 
Q 2766 1069 2766 1631 
L 2766 1759 
L 2194 1759 
z
M 3341 1997 
L 3341 0 
L 2766 0 
L 2766 531 
Q 2569 213 2275 61 
Q 1981 -91 1556 -91 
Q 1019 -91 701 211 
Q 384 513 384 1019 
Q 384 1609 779 1909 
Q 1175 2209 1959 2209 
L 2766 2209 
L 2766 2266 
Q 2766 2663 2505 2880 
Q 2244 3097 1772 3097 
Q 1472 3097 1187 3025 
Q 903 2953 641 2809 
L 641 3341 
Q 956 3463 1253 3523 
Q 1550 3584 1831 3584 
Q 2591 3584 2966 3190 
Q 3341 2797 3341 1997 
z
" id="DejaVuSans-61" transform="scale(0.015625)"/>
       <path d="M 2906 2969 
L 2906 4863 
L 3481 4863 
L 3481 0 
L 2906 0 
L 2906 525 
Q 2725 213 2448 61 
Q 2172 -91 1784 -91 
Q 1150 -91 751 415 
Q 353 922 353 1747 
Q 353 2572 751 3078 
Q 1150 3584 1784 3584 
Q 2172 3584 2448 3432 
Q 2725 3281 2906 2969 
z
M 947 1747 
Q 947 1113 1208 752 
Q 1469 391 1925 391 
Q 2381 391 2643 752 
Q 2906 1113 2906 1747 
Q 2906 2381 2643 2742 
Q 2381 3103 1925 3103 
Q 1469 3103 1208 2742 
Q 947 2381 947 1747 
z
" id="DejaVuSans-64" transform="scale(0.015625)"/>
      </defs>
      <use xlink:href="#DejaVuSans-61"/>
      <use x="61.279297" xlink:href="#DejaVuSans-64"/>
      <use x="124.755859" xlink:href="#DejaVuSans-64"/>
     </g>
    </g>
    <g id="line2d_39">
     <path d="M 797.34375 67.932813 
L 817.34375 67.932813 
" style="fill:none;stroke:#d62728;stroke-linecap:square;stroke-width:1.5;"/>
    </g>
    <g id="line2d_40">
     <g>
      <use style="fill:#d62728;stroke:#d62728;" x="807.34375" xlink:href="#mc50774c8d6" y="67.932813"/>
     </g>
    </g>
    <g id="text_20">
     <!-- div -->
     <g transform="translate(825.34375 71.432813)scale(0.1 -0.1)">
      <defs>
       <path d="M 191 3500 
L 800 3500 
L 1894 563 
L 2988 3500 
L 3597 3500 
L 2284 0 
L 1503 0 
L 191 3500 
z
" id="DejaVuSans-76" transform="scale(0.015625)"/>
      </defs>
      <use xlink:href="#DejaVuSans-64"/>
      <use x="63.476562" xlink:href="#DejaVuSans-69"/>
      <use x="91.259766" xlink:href="#DejaVuSans-76"/>
     </g>
    </g>
   </g>
  </g>
 </g>
 <defs>
  <clipPath id="p1c85e46b45">
   <rect height="379.24" width="799" x="54.2" y="10.8"/>
  </clipPath>
 </defs>
</svg>
